<svg width="226" height="184" viewBox="0 0 226 184" fill="none" xmlns="http://www.w3.org/2000/svg">
<path d="M39.2 0.84115C26.1 2.94115 12.6 13.6411 8.30001 25.2411C7.10001 28.3411 6.20001 31.2411 6.20001 31.7411C6.20001 32.3411 9.30001 32.7411 13.2 32.7411H20.1L20.7 28.9411C22.7 17.6411 26.6 10.4411 33.3 6.04115C39.2 2.14115 49.9 1.54115 56.1 4.64115C63.1 8.24115 67.5 16.1411 69.7 28.9411L70.3 32.7411H78.9H87.5L86.8 27.6411C84.2 7.94115 64.3 -3.25885 39.2 0.84115Z" fill="#ECC1EC"/>
<path d="M174.7 0.341148C164.8 1.94115 155.7 5.74115 147.9 11.6411C143.1 15.1411 135.5 24.3411 132.6 29.9411L131.1 32.7411H140.1H149L150.7 27.8411C152.8 21.3411 159.2 11.6411 163 8.84115C169.3 4.44115 174.4 2.74115 182.2 2.74115C191.3 2.74115 196.7 4.94115 200.7 10.1411C203.8 14.1411 207.2 24.2411 207.2 29.3411V32.7411H216.2H225.2V27.9411C225.1 16.3412 215.4 6.04115 200.7 2.14115C195.3 0.641148 179.6 -0.358852 174.7 0.341148Z" fill="#ECC1EC"/>
<path d="M4.70001 41.2411C2.90001 57.8411 8.40001 72.9411 20.2 84.1411C27.2 90.6411 27.3 90.7411 29.7 89.1411C31.3 88.0411 33.3 87.7411 35.2 88.0411C37.9 88.6411 38.3 88.2411 41.2 83.2411C42.9 80.2411 44.8 77.5411 45.3 77.1411C45.8 76.8411 43.2 74.4411 39.4 71.7411C27.1 63.1411 22.7 56.3411 20.9 43.1411L19.8 34.7411H12.6H5.40001L4.70001 41.2411Z" fill="#ECC1EC"/>
<path d="M70.2 38.5411C70.2 40.6411 70.4 42.6411 70.7 42.9411C71 43.2411 73.4 43.0411 75.9 42.6411C80.6 41.7411 83.6 39.7411 85.3 36.5411C86.2 34.8411 85.6 34.7411 78.2 34.7411H70.2V38.5411Z" fill="#ECC1EC"/>
<path d="M129.4 36.4411C126.5 42.0412 122.9 56.1412 121.2 67.9412C119.8 77.3411 119.9 105.241 121.2 114.741C122.8 125.941 126.4 139.841 127.9 140.441C128.6 140.741 129.2 142.141 129.2 143.641C129.2 148.141 135.4 158.641 142.4 166.241C149.8 174.141 158.6 179.541 168.2 181.841C176.7 183.941 192.5 183.441 200.8 180.941C214.9 176.641 225.2 165.541 225.2 154.641C225.2 152.041 224.9 151.741 221.8 151.741C218.6 151.741 218.4 152.041 216.4 157.441C210.1 174.641 199.9 181.741 183.2 180.541C174.7 179.941 166.8 176.341 161.3 170.641C156.5 165.641 151.1 155.441 149.1 147.841C147.7 142.341 145.7 140.741 146.4 145.741C146.7 147.741 146.4 148.741 145.5 148.741C144.8 148.741 144.2 148.041 144.2 147.241C144.2 146.441 143.7 145.741 143.1 145.741C142.5 145.741 142.2 146.441 142.6 147.241C142.9 148.241 142.5 148.741 141.4 148.741C140.1 148.741 139.7 147.841 139.7 144.741C139.7 141.541 140.1 140.741 141.5 140.741C142.9 140.741 143.2 141.241 142.7 142.741C142.3 143.841 142.5 144.741 143.1 144.741C143.7 144.741 144.2 143.841 144.2 142.741C144.2 141.641 144.9 140.741 145.8 140.741C146.8 140.741 147.2 140.141 146.8 138.941C145.7 135.041 144.2 125.241 143.6 116.841L142.9 107.841L139.3 109.841C134 112.641 129.6 112.341 126.1 108.841C123.6 106.241 123.2 105.141 123.2 100.241C123.2 96.3411 124 93.0412 125.7 89.3411C128.4 83.6412 138.1 72.2411 141.1 71.2411C142.6 70.7411 143.1 69.2411 143.7 62.9412C144.4 55.3411 146.4 42.8412 147.7 37.4411L148.4 34.7411H139.3C131.7 34.7411 130.1 35.0412 129.4 36.4411ZM138.2 142.341C138.2 143.441 137.7 143.741 136.6 143.341C135.3 142.841 135.1 143.241 135.4 145.741C135.7 147.641 135.4 148.741 134.7 148.741C134 148.741 133.7 147.541 134 145.541C134.4 142.941 134.2 142.541 132.8 143.041C131.8 143.441 131.2 143.141 131.2 142.241C131.2 141.241 132.3 140.741 134.7 140.741C137.2 140.741 138.2 141.141 138.2 142.341Z" fill="#ECC1EC"/>
<path d="M208.2 39.7411C208.2 44.2411 208.4 44.7411 210.5 44.7411C215.6 44.6411 224.2 38.8411 224.2 35.5412C224.2 35.0412 220.6 34.7411 216.2 34.7411H208.2V39.7411Z" fill="#ECC1EC"/>
<path d="M138.3 82.3411C131.1 90.1411 126.5 103.541 130.5 105.041C132.2 105.641 139.2 102.641 140.9 100.641C141.8 99.5411 143.4 77.7411 142.6 77.7411C142.5 77.7411 140.6 79.7411 138.3 82.3411Z" fill="#ECC1EC"/>
<path d="M50.3 81.6411C49.7 82.7411 46.9 86.5411 44.2 90.1411C39 96.9411 38.2 98.7411 40.6 98.7411C42.4 98.7411 45.8 94.0411 46.7 90.5411C47.3 88.2411 47.8 88.0411 52.5 88.1411C57.1 88.2411 57.7 88.5411 58.6 90.8411C59.4 93.1411 59 94.1411 55.7 98.1411C49.6 105.641 52.5 104.641 60.1 96.6411L67.1 89.3411L63.9 87.2411C62.1 86.0411 58.6 83.8411 56 82.3411C51.4 79.6411 51.3 79.6411 50.3 81.6411Z" fill="#ECC1EC"/>
<path d="M68.8 95.4412C64.6 99.6412 63.2 102.941 67.2 99.2412C70.1 96.4412 72.8 92.7412 71.9 92.7412C71.7 92.7412 70.2 93.9412 68.8 95.4412Z" fill="#ECC1EC"/>
<path d="M48.6 96.4411C47.5 98.0411 46.2 99.9411 45.7 100.741C45 101.941 45.1 102.041 46.3 101.041C47.7 99.9411 51.6 93.7411 50.9 93.7411C50.7 93.7411 49.7 94.9411 48.6 96.4411Z" fill="#ECC1EC"/>
<path d="M75.1 99.9412C73.9 102.241 73.9 102.241 76.1 100.341C78.4 98.2412 78.7 97.7412 77.2 97.7412C76.7 97.7412 75.7 98.7412 75.1 99.9412Z" fill="#ECC1EC"/>
<path d="M77.7 104.741C74.4 108.241 71.9 108.541 69.9 105.741C68.5 103.841 68.5 103.841 66.2 106.241C63.4 109.241 60.8 109.441 58.9 106.741C57.6 104.841 57.4 104.841 56.1 106.341C55 107.741 55.1 108.041 56.7 109.041C60.4 111.041 67.4 118.141 69.7 122.141C72.1 126.541 73.7 131.041 74.7 136.941C75 139.141 75.9 140.741 76.6 140.741C77.4 140.741 78.3 141.941 78.7 143.441L79.4 146.241L80.4 143.441C81.9 139.341 83.8 140.041 83.7 144.741V148.741H79.5H75.4L74.7 153.941C73.1 165.441 67.8 174.241 59.9 178.441C57.8 179.541 53.6 180.241 47.7 180.541C39.4 180.841 38.3 180.641 33.2 178.041C26.1 174.441 21.8 168.641 19 159.141L16.8 151.741H8.50001H0.200012L0.900012 154.941C2.70001 165.041 10.7 174.741 20.7 179.341C31.1 184.141 51 184.541 63.2 180.241C76.6 175.541 86.9 163.241 89.7 148.941C89.9 147.441 89.6 146.741 88.6 146.741C87.8 146.741 87.4 147.141 87.7 147.741C88 148.241 87.6 148.741 86.7 148.741C85.3 148.741 85.3 148.441 86.5 145.941C87.3 144.441 88.2 142.541 88.4 141.741C88.8 140.641 89.2 140.941 90 142.741C91.8 146.941 91.5 125.241 89.7 118.241C88.2 112.741 82.6 101.741 81.2 101.741C80.8 101.741 79.3 103.041 77.7 104.741Z" fill="#ECC1EC"/>
<path d="M8.2 134.541C4.3 136.441 1.7 140.441 0.7 145.941L0 149.741H8.2H16.5L15.8 143.641C15.5 140.241 15.2 136.341 15.2 135.141C15.2 132.241 13.1 132.041 8.2 134.541Z" fill="#ECC1EC"/>
<path d="M218.9 147.741C218.5 149.441 218.9 149.741 221.4 149.741C224.4 149.741 224.5 149.741 222.7 147.741C221.7 146.641 220.6 145.741 220.2 145.741C219.8 145.741 219.2 146.641 218.9 147.741Z" fill="#ECC1EC"/>
</svg>
