<svg width="158" height="62" viewBox="0 0 158 62" fill="none" xmlns="http://www.w3.org/2000/svg">
<path d="M41.7036 0.462051C34.5532 1.58092 29.3443 4.97144 27.2134 9.8877C25.8874 12.9731 25.7454 18.4657 26.9766 21.3137C27.829 23.4498 31.3331 27.5523 31.9961 27.2472C32.8011 26.9081 33.9376 27.4845 33.9376 28.2643C33.9376 29.5866 34.79 29.5866 36.8735 28.2643C38.4836 27.1793 39.0518 27.0437 40.3777 27.1793C41.751 27.3489 42.0351 27.2472 42.8875 26.23L43.8346 25.0772L41.5142 23.8566C38.3889 22.2292 36.4 20.5339 34.932 18.2623C33.8902 16.6348 33.7008 15.9567 33.7008 12.6679C33.7008 8.22634 34.6479 5.75126 37.1103 3.68304C39.478 1.68264 42.0351 0.868913 45.634 0.868913C52.595 0.902818 56.3833 4.46286 56.9989 11.5491L57.2831 14.5327H59.0352C61.3555 14.5327 63.8653 13.3121 64.5756 11.8203C65.8068 9.31131 64.0073 5.51393 60.5031 3.24228C57.9934 1.61483 56.2886 1.00453 52.5003 0.428146C48.6173 -0.148243 45.4919 -0.148243 41.7036 0.462051Z" fill="#EC96C1"/>
<path d="M107.099 0.156894C102.08 0.868903 100.659 1.17405 98.7177 1.81825C90.2887 4.7341 84.9378 10.4641 82.0018 19.788C80.7706 23.5515 80.5338 34.7741 81.4809 39.5887C83.091 47.2851 86.4531 52.8117 91.9461 56.7786C97.2971 60.6777 102.08 62 110.651 62C116.333 61.9661 118.843 61.6609 122.253 60.4404C127.225 58.6434 130.918 54.8799 130.397 52.0658C130.161 50.8791 128.977 49.4551 128.172 49.4551C127.982 49.4551 127.604 50.3027 127.272 51.3199C126.42 54.0662 123.673 57.7279 121.495 59.0502C115.955 62.4747 105.679 61.8983 100.328 57.9314C95.5924 54.4052 92.7511 47.8954 91.7567 38.5037C91.5199 36.2998 91.2358 34.4351 91.1411 34.3333C90.9991 34.2655 90.2414 34.4351 89.389 34.7402C87.3055 35.4861 84.701 35.181 83.3277 34.0282C81.8124 32.7737 81.8598 30.0274 83.4224 27.654C84.7483 25.6197 88.8208 22.1953 90.7623 21.4833C91.8988 21.0425 92.0882 20.7713 92.325 18.6691C92.5144 17.3807 93.1773 14.8379 93.8403 13.007C96.8709 4.46286 101.89 0.834998 110.651 0.868903C114.202 0.868903 116.949 1.68263 118.843 3.34398C120.595 4.80191 122.016 8.36195 122.347 12.0915L122.631 15.2786L124.336 15.0413C128.361 14.5327 130.54 12.6001 130.54 9.61645C130.492 4.90362 124.526 1.17405 115.718 0.32642C112.072 -0.0465377 108.946 -0.0804429 107.099 0.156894Z" fill="#EC96C1"/>
<path d="M89.389 25.2468C85.9322 27.9253 83.8013 32.5025 85.7428 33.0449C86.5004 33.2484 89.8152 32.1295 90.6202 31.4175C91.0464 31.0106 91.9461 23.6871 91.5199 23.6871C91.4252 23.6871 90.4782 24.3652 89.389 25.2468Z" fill="#EC96C1"/>
<path d="M45.0658 27.5523C41.0407 31.4514 40.2357 33.3162 43.6452 30.7394C44.829 29.8579 45.9182 28.6712 46.1076 28.0948C46.3443 27.1116 46.4864 27.0777 47.8597 27.2811C49.4697 27.5184 49.4223 27.4845 47.6702 26.6708C46.5338 26.1622 46.439 26.1961 45.0658 27.5523Z" fill="#EC96C1"/>
<path d="M38.4836 29.7562C37.7733 30.2986 37.3471 30.8072 37.5839 30.875C37.7733 30.9767 38.5783 30.536 39.2886 29.9257C40.946 28.5356 40.283 28.3999 38.4836 29.7562Z" fill="#EC96C1"/>
<path d="M50.5114 30.2986C48.3332 32.299 48.1437 32.7737 49.9432 31.8583C52.3582 30.6377 53.9209 28.7051 52.4529 28.7729C52.3109 28.8068 51.4112 29.4849 50.5114 30.2986Z" fill="#EC96C1"/>
<path d="M46.9599 29.9935C46.5337 30.4682 45.4446 31.4514 44.5449 32.1295L42.9348 33.4179L47.102 35.2149C56.9042 39.5208 60.0296 43.4877 59.3666 50.7435C59.0352 54.3374 57.7093 57.0837 55.4363 58.7451C52.9265 60.6099 51.2218 61.0846 46.6758 61.2541C43.2663 61.3897 42.2719 61.288 40.1883 60.6438C37.1577 59.6944 34.79 57.7957 33.4641 55.3207C32.3749 53.2524 31.0964 48.3362 31.0964 46.3019C31.0964 44.9796 31.0964 44.9796 29.581 45.183C24.7983 45.8611 22.9515 49.2855 24.9404 53.8966C25.7927 55.9649 26.361 56.643 28.634 58.2704C32.4696 60.9828 35.3109 61.7287 42.6981 61.9322C46.2023 62.0339 49.3276 61.9322 50.985 61.6609C61.0714 60.0674 67.038 54.0662 67.0853 45.5221C67.0853 40.6058 65.6174 37.1814 62.2552 34.4012C60.7873 33.1806 60.6452 33.1467 59.3193 33.5535C58.0881 33.9604 57.8987 33.9265 57.141 33.2823L56.336 32.5364L55.2469 33.3501C53.8736 34.4012 52.595 34.4351 51.8847 33.4857L51.3638 32.7737L50.2747 33.5196C49.517 34.0282 48.712 34.1977 47.6229 34.1299C46.2023 34.0282 46.0128 33.8926 45.8708 32.9093C45.7761 32.2312 46.0602 31.4514 46.6284 30.875C47.8596 29.6205 48.2385 29.1119 48.0017 29.1119C47.8596 29.1119 47.4335 29.5188 46.9599 29.9935Z" fill="#EC96C1"/>
<path d="M54.8207 30.875C54.0156 31.7905 54.2998 31.8922 55.5783 31.1463C56.336 30.7055 56.4781 30.5021 56.0519 30.3664C55.673 30.2647 55.1521 30.5021 54.8207 30.875Z" fill="#EC96C1"/>
<path d="M68.2781 22.6722C66.9522 24.4014 66.8575 24.7404 67.4731 24.9099C68.4202 25.1473 69.7934 24.1979 70.7405 22.5705C71.4035 21.3838 71.4035 21.2821 70.5985 20.9769C69.9355 20.7057 69.5567 21.0108 68.2781 22.6722Z" fill="black"/>
<path d="M92.1445 21.0108C89.6821 21.4855 85.1835 24.7743 83.2893 27.4867C80.1166 32.03 82.6737 36.0309 88.0247 34.8781C90.3924 34.3695 92.7601 32.4708 92.7601 31.0468V30.0296L90.6765 31.2502C88.4035 32.5725 86.3199 33.2845 85.3255 33.0133C84.2837 32.7081 84.5679 30.0635 85.8938 28.1648C86.5567 27.2155 88.1194 25.7237 89.3506 24.8421C91.5762 23.2825 94.9857 21.7568 95.5066 22.0958C95.9328 22.4349 94.7963 23.8928 92.9495 25.3168L91.2448 26.7069H92.5233C94.228 26.7069 96.2643 25.622 97.2113 24.1979C98.2058 22.6722 98.1584 22.4349 96.7852 21.4516C95.554 20.5362 94.9384 20.5023 92.1445 21.0108Z" fill="black"/>
<path d="M11.0273 21.3499C9.1805 21.7568 5.34483 23.825 4.06628 25.0795C2.88243 26.2322 2.83508 27.8258 3.97157 28.7412C4.44511 29.1142 5.96043 29.6567 7.38105 29.9618C8.75431 30.2331 9.98551 30.606 10.0802 30.7416C10.2223 30.8773 9.7961 31.3519 9.13314 31.7588C5.81837 33.827 0.372675 33.5558 2.26683 31.4197C2.97714 30.5382 1.84065 30.5382 0.751506 31.3858C-0.337633 32.2335 -0.242925 32.9455 1.03563 34.0304C2.03006 34.8442 2.5036 34.9459 4.58717 34.912C8.75431 34.8442 12.732 32.8438 12.732 30.7755C12.732 29.555 11.4535 28.809 8.47019 28.2326C4.87129 27.5545 4.68188 27.2833 6.62339 25.8254C8.5649 24.3675 11.4535 23.1469 13.5844 22.8078C15.7153 22.5027 15.5733 23.2486 13.2056 25.0456C12.1638 25.8254 11.3114 26.5374 11.3114 26.6052C11.3114 26.6391 11.927 26.7069 12.732 26.7069C15.9521 26.7069 18.746 23.1808 16.7571 21.6211C15.81 20.8752 13.5371 20.7735 11.0273 21.3499Z" fill="black"/>
<path d="M46.7321 22.028C46.3533 22.2653 44.98 23.5876 43.7962 24.9438C42.0441 26.9103 41.3811 27.385 40.6708 27.2155C38.9187 26.8086 37.2613 27.4867 34.8936 29.555C33.5677 30.6738 32.1945 31.7588 31.8156 31.8944C30.4897 32.4708 30.5844 31.7927 32.0524 30.0635C33.7572 28.1309 33.8045 27.9614 32.8574 27.385C32.3365 27.0799 31.7209 27.2833 29.7321 28.6395C28.3588 29.521 27.3644 30.0974 27.4591 29.9279C27.6011 29.7245 27.98 29.182 28.3588 28.6395C28.8797 27.8936 28.8797 27.6224 28.4062 27.2833C27.9326 26.9442 27.6011 27.0799 26.7488 27.8936C25.1387 29.4871 21.6346 32.1317 21.161 32.1317C20.8769 32.1317 21.2557 31.4536 21.9187 30.6399C22.5816 29.7923 23.1499 28.9108 23.1499 28.6395C23.1499 27.8936 20.8769 26.9442 19.6457 27.1816C18.083 27.4528 14.6735 30.0635 14.1526 31.4197C13.3003 33.6914 15.1944 34.539 17.5148 32.9455C18.7933 32.0978 18.7933 32.0639 19.1248 32.7759C19.4563 33.5558 21.4451 33.7931 21.966 33.115C22.2028 32.9116 22.5816 33.0472 23.0078 33.488C23.7181 34.2339 23.7655 34.2 26.5594 32.0639C28.5956 30.4704 29.2585 30.1313 29.0218 30.7755C28.0273 33.1489 29.1165 34.3356 31.5315 33.488C32.2418 33.2167 32.9995 32.9455 33.2363 32.8777C33.4257 32.8099 33.5677 32.9794 33.5677 33.2506C33.5677 34.5051 36.2196 34.0643 37.5455 32.6064L38.3978 31.691L39.0608 32.742C40.1499 34.6407 41.9967 34.0982 45.4062 30.979C46.4953 29.9279 47.6318 29.0803 47.916 29.0803C48.2001 29.0803 48.0107 29.4193 47.4898 29.8262C45.4536 31.5893 44.8853 32.9794 45.9745 33.7592C46.8268 34.3695 48.4369 34.2678 49.7628 33.5219C50.8993 32.8438 50.9466 32.8438 51.7043 33.5219C52.7934 34.4034 53.3143 34.3356 54.9243 33.115C55.7767 32.4369 56.2976 32.2335 56.2976 32.5725C56.2976 33.3523 57.6235 33.9626 58.6179 33.6236C59.8965 33.1828 63.4007 30.1652 63.4007 29.4871C63.4007 29.1142 62.5957 29.4871 61.033 30.606C58.6179 32.3013 57.9076 32.1317 59.6124 30.267C60.8909 28.9108 60.7962 28.2666 59.3283 27.5545C57.4814 26.7069 56.2502 27.1138 52.6514 29.7923C50.8993 31.1146 49.0525 32.3352 48.5789 32.5047C47.7739 32.8438 47.7739 32.7759 48.2948 32.0639C48.5789 31.6232 49.4786 30.7755 50.189 30.1652C51.7516 28.9108 51.799 28.7751 50.9466 27.8936C50.4731 27.4528 49.6681 27.2833 48.2948 27.2833C46.4006 27.2833 46.2112 27.385 45.4062 28.6056C44.9327 29.3176 43.7962 30.4704 42.8017 31.1146L41.0023 32.3013L41.3338 31.2841C41.5232 30.7077 42.565 29.4193 43.6541 28.4022C46.4953 25.7576 48.721 23.0452 48.721 22.2653C48.721 21.5194 47.8213 21.4177 46.7321 22.028ZM20.4981 29.1481C17.3254 31.9283 15.3838 32.9794 16.5677 31.3519C17.3727 30.2331 19.9298 28.4022 20.7348 28.4022C21.2557 28.4022 21.2084 28.5717 20.4981 29.1481ZM57.9076 29.1481C56.6764 30.2331 53.9299 32.1317 53.5984 32.1317C53.2196 32.1317 54.8296 30.4026 56.2029 29.3176C57.7182 28.1648 59.2809 27.9953 57.9076 29.1481ZM39.7711 29.3176C39.1555 30.1652 35.4619 32.6742 35.4619 32.2674C35.4619 31.8944 36.6457 30.5721 37.9716 29.4871C39.1555 28.5717 40.4341 28.4361 39.7711 29.3176Z" fill="black"/>
<path d="M126.192 23.9945C125.103 25.2151 124.724 25.3507 123.067 25.3507C120.888 25.3507 120.367 26.1983 122.356 26.5713L123.493 26.7747L122.262 28.1648C120.794 29.8262 117.858 32.1317 117.242 32.1317C117.005 32.1317 117.384 31.4536 118.047 30.6399C119.61 28.7412 119.61 28.3005 118.047 27.5545C116.295 26.7408 115.158 27.0799 111.654 29.4871C108.103 31.9283 105.356 33.1489 104.599 32.6064C103.841 32.0639 104.599 31.0468 105.593 31.2163C106.682 31.4197 109.239 30.3009 109.855 29.2837C110.234 28.7073 110.234 28.3005 109.807 27.7241C108.813 26.3679 106.777 27.046 102.657 30.1652C100.621 31.691 98.8214 32.8437 98.632 32.742C98.3005 32.4708 98.632 32.0639 101 29.9618C102.231 28.8429 102.278 28.6734 101.663 27.9953C101.094 27.3511 100.526 27.2155 98.8687 27.2494C97.1166 27.2833 96.7852 27.4189 96.501 28.1648C96.3116 28.6395 95.8381 29.3854 95.4119 29.8262C93.9913 31.2841 94.6069 31.6571 96.3116 30.3348C98.5846 28.6395 99.2002 28.7412 97.4955 30.5721C95.9801 32.1656 95.7434 33.115 96.6431 33.7592C97.4955 34.3695 98.5846 34.2678 100.479 33.3184C102.183 32.5047 102.231 32.5047 102.704 33.1489C103.509 34.2678 105.261 34.3356 107.677 33.3862C109.76 32.5386 109.807 32.5386 110.281 33.1828C110.991 34.0643 112.128 33.9965 113.643 32.9455C114.922 32.0978 114.922 32.0639 115.253 32.7759C115.632 33.6236 117.479 33.7253 118.379 32.9455C118.947 32.4708 119.041 32.4708 119.373 33.115C119.846 34.0304 121.788 34.0643 123.587 33.115C124.961 32.4369 124.961 32.4369 124.961 33.115C124.961 34.4034 127.66 34.3356 129.223 32.9794C129.791 32.5047 129.886 32.5386 130.359 33.2167C131.211 34.4034 133.106 34.4034 135.047 33.1828C136.847 32.03 138.03 31.7927 137.557 32.6742C137.367 32.9794 137.509 33.454 137.794 33.7253C138.267 34.1321 138.835 33.827 141.156 32.0639C143.239 30.4704 143.855 30.1313 143.618 30.7755C142.624 33.2167 143.808 34.4373 146.223 33.4201C147.549 32.9116 147.643 32.9116 148.448 33.5219C149.585 34.4034 150.911 34.3356 153.42 33.2167C155.504 32.2335 158.535 29.5888 157.919 29.182C157.777 29.0464 156.877 29.5888 155.93 30.3687C155.03 31.1485 154.083 31.7927 153.894 31.7927C153.705 31.7927 153.847 30.8772 154.273 29.7584C154.936 27.8597 154.936 27.6902 154.178 27.1477C153.42 26.6052 153.184 26.7069 149.632 29.4193C147.549 31.0129 145.702 32.1995 145.512 32.0639C145.323 31.9283 145.844 31.0129 146.696 30.0635C149.159 27.2155 147.454 26.3339 144.139 28.7412C142.15 30.1991 141.487 30.3009 142.718 28.9446C143.523 28.0631 143.429 27.046 142.529 27.046C142.245 27.046 141.298 27.8936 140.351 28.9107C139.451 29.9279 138.504 30.7755 138.267 30.7755C138.03 30.7755 137.888 29.9618 137.936 28.9786L137.983 27.2155L136.278 27.1138C134.668 27.0121 134.337 27.1816 132.253 28.9446C126.902 33.454 125.482 33.9965 128.465 30.4365C131.685 26.5374 130.454 26.3679 125.529 29.9957C123.398 31.6232 121.93 32.4708 121.788 32.1995C121.646 31.9622 122.593 30.606 123.872 29.1481C126.145 26.6391 126.287 26.5374 128.323 26.3679C130.738 26.1644 131.306 25.249 129.128 25.0795C127.991 24.9777 127.897 24.876 128.37 24.3674C128.938 23.7232 128.607 22.6383 127.897 22.6383C127.66 22.6383 126.902 23.2486 126.192 23.9945ZM107.44 29.5888C106.824 30.0635 106.209 30.3687 106.114 30.267C105.972 30.1652 106.351 29.7245 106.966 29.2498C107.582 28.7751 108.197 28.47 108.292 28.5717C108.434 28.6734 108.055 29.1142 107.44 29.5888ZM116.626 29.1481C113.454 31.9283 111.512 32.9794 112.696 31.3519C113.501 30.233 116.058 28.4022 116.863 28.4022C117.384 28.4022 117.337 28.5717 116.626 29.1481ZM136.468 29.0803C136.326 29.4532 136.042 29.8601 135.805 29.9618C135.331 30.1652 135.237 28.9786 135.71 28.6395C136.326 28.1987 136.704 28.4022 136.468 29.0803ZM151.621 30.5043C151.195 32.1995 149.111 33.6236 149.111 32.2335C149.111 31.7249 151.242 29.4193 151.716 29.4193C151.858 29.4193 151.81 29.9279 151.621 30.5043ZM134.147 31.0129C134.479 31.6232 132.821 33.115 132.253 32.7081C131.874 32.4369 132.964 30.4365 133.484 30.4365C133.674 30.4365 134.005 30.7077 134.147 31.0129Z" fill="black"/>
<path d="M131.59 23.4859C130.927 24.0623 131.117 25.0795 131.922 25.249C132.632 25.4185 134.147 23.825 133.721 23.3164C133.295 22.8417 132.253 22.9095 131.59 23.4859Z" fill="black"/>
<path d="M71.8297 27.0799C71.4035 27.2494 69.9829 28.3683 68.657 29.5549C66.1472 31.7927 66.0052 32.2674 67.5678 33.5558C68.5623 34.4034 69.9829 34.3017 72.4453 33.2167C74.5288 32.2335 77.5595 29.5889 76.9439 29.182C76.8018 29.0464 75.9021 29.5889 74.955 30.3687C74.0553 31.1485 73.1082 31.7927 72.9188 31.7927C72.7294 31.7927 72.8715 30.8773 73.2976 29.7584C73.9606 27.9614 73.9606 27.6902 73.345 27.2494C72.8241 26.9103 72.3979 26.8425 71.8297 27.0799ZM70.6458 30.5043C70.1723 32.3691 68.1361 33.6236 68.1361 32.0639C68.1361 31.4875 70.2196 29.4193 70.8352 29.4193C70.8826 29.4193 70.8352 29.9279 70.6458 30.5043Z" fill="black"/>
</svg>
