<svg width="334" height="43" viewBox="0 0 334 43" fill="none" xmlns="http://www.w3.org/2000/svg">
<path d="M144.187 5.86935C141.387 10.9693 141.187 11.9693 142.487 12.4693C144.487 13.1693 147.387 10.3693 149.387 5.56935C150.787 2.06935 150.787 1.76935 149.087 0.869346C147.687 0.0693464 146.887 0.969346 144.187 5.86935Z" fill="black"/>
<path d="M194.587 0.969344C189.387 2.36934 179.887 12.0693 175.887 20.0693C169.187 33.4693 174.587 45.2693 185.887 41.8693C190.887 40.3693 195.887 34.7693 195.887 30.5693V27.5693L191.487 31.1693C186.687 35.0693 182.287 37.1693 180.187 36.3693C177.987 35.4693 178.587 27.6693 181.387 22.0693C182.787 19.2693 186.087 14.8693 188.687 12.2693C193.387 7.66934 200.587 3.16934 201.687 4.16934C202.587 5.16934 200.187 9.46934 196.287 13.6693L192.687 17.7693H195.387C198.987 17.7693 203.287 14.5693 205.287 10.3693C207.387 5.86934 207.287 5.16934 204.387 2.26934C201.787 -0.430656 200.487 -0.530656 194.587 0.969344Z" fill="black"/>
<path d="M23.287 1.96934C19.387 3.16934 11.287 9.26934 8.587 12.9693C6.087 16.3693 5.987 21.0693 8.387 23.7693C9.387 24.8693 12.587 26.4693 15.587 27.3693C18.487 28.1693 21.087 29.2693 21.287 29.6693C21.587 30.0693 20.687 31.4693 19.287 32.6693C12.287 38.7693 0.787 37.9693 4.787 31.6693C6.287 29.0693 3.887 29.0693 1.587 31.5693C-0.713 34.0693 -0.513 36.1693 2.187 39.3693C4.287 41.7693 5.287 42.0693 9.687 41.9693C18.487 41.7693 26.887 35.8693 26.887 29.7693C26.887 26.1693 24.187 23.9693 17.887 22.2693C10.287 20.2693 9.887 19.4693 13.987 15.1693C18.087 10.8693 24.187 7.26934 28.687 6.26934C33.187 5.36934 32.887 7.56934 27.887 12.8693C25.687 15.1693 23.887 17.2693 23.887 17.4693C23.887 17.5693 25.187 17.7693 26.887 17.7693C33.687 17.7693 39.587 7.36934 35.387 2.76934C33.387 0.569344 28.587 0.269344 23.287 1.96934Z" fill="black"/>
<path d="M98.687 3.96935C97.887 4.66935 94.987 8.56935 92.487 12.5693C88.787 18.3693 87.387 19.7693 85.887 19.2693C82.187 18.0693 78.687 20.0693 73.687 26.1693C70.887 29.4693 67.987 32.6693 67.187 33.0693C64.387 34.7693 64.587 32.7693 67.687 27.6693C71.287 21.9693 71.387 21.4693 69.387 19.7693C68.287 18.8693 66.987 19.4693 62.787 23.4693C59.887 26.0693 57.787 27.7693 57.987 27.2693C58.287 26.6693 59.087 25.0693 59.887 23.4693C60.987 21.2693 60.987 20.4693 59.987 19.4693C58.987 18.4693 58.287 18.8693 56.487 21.2693C53.087 25.9693 45.687 33.7693 44.687 33.7693C44.087 33.7693 44.887 31.7693 46.287 29.3693C47.687 26.8693 48.887 24.2693 48.887 23.4693C48.887 21.2693 44.087 18.4693 41.487 19.1693C38.187 19.9693 30.987 27.6693 29.887 31.6693C28.087 38.3693 32.087 40.8693 36.987 36.1693C39.687 33.6693 39.687 33.5693 40.387 35.6693C41.087 37.9693 45.287 38.6693 46.387 36.6693C46.887 36.0693 47.687 36.4693 48.587 37.7693C50.087 39.9693 50.187 39.8693 56.087 33.5693C60.387 28.8693 61.787 27.8693 61.287 29.7693C59.187 36.7693 61.487 40.2693 66.587 37.7693C68.087 36.9693 69.687 36.1693 70.187 35.9693C70.587 35.7693 70.887 36.2693 70.887 37.0693C70.887 40.7693 76.487 39.4693 79.287 35.1693L81.087 32.4693L82.487 35.5693C84.787 41.1693 88.687 39.5693 95.887 30.3693C98.187 27.2693 100.587 24.7693 101.187 24.7693C101.787 24.7693 101.387 25.7693 100.287 26.9693C95.987 32.1693 94.787 36.2693 97.087 38.5693C98.887 40.3693 102.287 40.0693 105.087 37.8693C107.487 35.8693 107.587 35.8693 109.187 37.8693C111.487 40.4693 112.587 40.2693 115.987 36.6693C117.787 34.6693 118.887 34.0693 118.887 35.0693C118.887 37.3693 121.687 39.1693 123.787 38.1693C126.487 36.8693 133.887 27.9693 133.887 25.9693C133.887 24.8693 132.187 25.9693 128.887 29.2693C123.787 34.2693 122.287 33.7693 125.887 28.2693C128.587 24.2693 128.387 22.3693 125.287 20.2693C121.387 17.7693 118.787 18.9693 111.187 26.8693C107.487 30.7693 103.587 34.3693 102.587 34.8693C100.887 35.8693 100.887 35.6693 101.987 33.5693C102.587 32.2693 104.487 29.7693 105.987 27.9693C109.287 24.2693 109.387 23.8693 107.587 21.2693C106.587 19.9693 104.887 19.4693 101.987 19.4693C97.987 19.4693 97.587 19.7693 95.887 23.3693C94.887 25.4693 92.487 28.8693 90.387 30.7693L86.587 34.2693L87.287 31.2693C87.687 29.5693 89.887 25.7693 92.187 22.7693C98.187 14.9693 102.887 6.96935 102.887 4.66935C102.887 2.46935 100.987 2.16935 98.687 3.96935ZM43.287 24.9693C36.587 33.1693 32.487 36.2693 34.987 31.4693C36.687 28.1693 42.087 22.7693 43.787 22.7693C44.887 22.7693 44.787 23.2693 43.287 24.9693ZM122.287 24.9693C119.687 28.1693 113.887 33.7693 113.187 33.7693C112.387 33.7693 115.787 28.6693 118.687 25.4693C121.887 22.0693 125.187 21.5693 122.287 24.9693ZM83.987 25.4693C82.687 27.9693 74.887 35.3693 74.887 34.1693C74.887 33.0693 77.387 29.1693 80.187 25.9693C82.687 23.2693 85.387 22.8693 83.987 25.4693Z" fill="black"/>
<path d="M266.487 9.76935C264.187 13.3694 263.387 13.7694 259.887 13.7694C255.287 13.7694 254.187 16.2694 258.387 17.3694L260.787 17.9694L258.187 22.0694C255.087 26.9694 248.887 33.7694 247.587 33.7694C247.087 33.7694 247.887 31.7694 249.287 29.3694C252.587 23.7694 252.587 22.4694 249.287 20.2694C245.587 17.8694 243.187 18.8694 235.787 25.9694C228.287 33.1694 222.487 36.7694 220.887 35.1694C219.287 33.5694 220.887 30.5694 222.987 31.0694C225.287 31.6694 230.687 28.3694 231.987 25.3694C232.787 23.6694 232.787 22.4694 231.887 20.7694C229.787 16.7694 225.487 18.7694 216.787 27.9694C212.487 32.4694 208.687 35.8694 208.287 35.5694C207.587 34.7694 208.287 33.5694 213.287 27.3694C215.887 24.0694 215.987 23.5694 214.687 21.5694C213.487 19.6694 212.287 19.2694 208.787 19.3694C205.087 19.4694 204.387 19.8694 203.787 22.0694C203.387 23.4694 202.387 25.6694 201.487 26.9694C198.487 31.2694 199.787 32.3694 203.387 28.4694C208.187 23.4694 209.487 23.7694 205.887 29.1694C202.687 33.8694 202.187 36.6694 204.087 38.5694C205.887 40.3694 208.187 40.0694 212.187 37.2694C215.787 34.8694 215.887 34.8694 216.887 36.7694C218.587 40.0694 222.287 40.2694 227.387 37.4694C231.787 34.9694 231.887 34.9694 232.887 36.8694C234.387 39.4694 236.787 39.2694 239.987 36.1694C242.687 33.6694 242.687 33.5694 243.387 35.6694C244.187 38.1694 248.087 38.4694 249.987 36.1694C251.187 34.7694 251.387 34.7694 252.087 36.6694C253.087 39.3694 257.187 39.4694 260.987 36.6694C263.887 34.6694 263.887 34.6694 263.887 36.6694C263.887 40.4694 269.587 40.2694 272.887 36.2694C274.087 34.8694 274.287 34.9694 275.287 36.9694C277.087 40.4694 281.087 40.4694 285.187 36.8694C288.987 33.4694 291.487 32.7694 290.487 35.3694C290.087 36.2694 290.387 37.6694 290.987 38.4694C291.987 39.6694 293.187 38.7694 298.087 33.5694C302.487 28.8694 303.787 27.8694 303.287 29.7694C301.187 36.9694 303.687 40.5694 308.787 37.5694C311.587 36.0694 311.787 36.0694 313.487 37.8694C315.887 40.4694 318.687 40.2694 323.987 36.9694C328.387 34.0694 334.787 26.2694 333.487 25.0694C333.187 24.6694 331.287 26.2694 329.287 28.5694C327.387 30.8694 325.387 32.7694 324.987 32.7694C324.587 32.7694 324.887 30.0694 325.787 26.7694C327.187 21.1694 327.187 20.6694 325.587 19.0694C323.987 17.4694 323.487 17.7694 315.987 25.7694C311.587 30.4694 307.687 33.9694 307.287 33.5694C306.887 33.1694 307.987 30.4694 309.787 27.6694C314.987 19.2694 311.387 16.6694 304.387 23.7694C300.187 28.0694 298.787 28.3694 301.387 24.3694C303.087 21.7694 302.887 18.7694 300.987 18.7694C300.387 18.7694 298.387 21.2694 296.387 24.2694C294.487 27.2694 292.487 29.7694 291.987 29.7694C291.487 29.7694 291.187 27.3694 291.287 24.4694L291.387 19.2694L287.787 18.9694C284.387 18.6694 283.687 19.1694 279.287 24.3694C267.987 37.6694 264.987 39.2694 271.287 28.7694C278.087 17.2694 275.487 16.7694 265.087 27.4694C260.587 32.2694 257.487 34.7694 257.187 33.9694C256.887 33.2694 258.887 29.2694 261.587 24.9694C266.387 17.5694 266.687 17.2694 270.987 16.7694C276.087 16.1694 277.287 13.4694 272.687 12.9694C270.287 12.6694 270.087 12.3694 271.087 10.8694C272.287 8.96935 271.587 5.76935 270.087 5.76935C269.587 5.76935 267.987 7.56935 266.487 9.76935ZM226.887 26.2694C225.587 27.6694 224.287 28.5694 224.087 28.2694C223.787 27.9694 224.587 26.6694 225.887 25.2694C227.187 23.8694 228.487 22.9694 228.687 23.2694C228.987 23.5694 228.187 24.8694 226.887 26.2694ZM246.287 24.9694C239.587 33.1694 235.487 36.2694 237.987 31.4694C239.687 28.1694 245.087 22.7694 246.787 22.7694C247.887 22.7694 247.787 23.2694 246.287 24.9694ZM288.187 24.7694C287.887 25.8694 287.287 27.0694 286.787 27.3694C285.787 27.9694 285.587 24.4694 286.587 23.4694C287.887 22.1694 288.687 22.7694 288.187 24.7694ZM320.187 28.9694C319.287 33.9694 314.887 38.1694 314.887 34.0694C314.887 32.5694 319.387 25.7694 320.387 25.7694C320.687 25.7694 320.587 27.2694 320.187 28.9694ZM283.287 30.4694C283.987 32.2694 280.487 36.6694 279.287 35.4694C278.487 34.6694 280.787 28.7694 281.887 28.7694C282.287 28.7694 282.987 29.5694 283.287 30.4694Z" fill="black"/>
<path d="M277.887 8.26936C276.487 9.96936 276.887 12.9694 278.587 13.4694C280.087 13.9694 283.287 9.26936 282.387 7.76936C281.487 6.36936 279.287 6.56936 277.887 8.26936Z" fill="black"/>
<path d="M151.687 18.8693C150.787 19.3693 147.787 22.6693 144.987 26.1693C139.687 32.7693 139.387 34.1693 142.687 37.9693C144.787 40.4693 147.787 40.1693 152.987 36.9693C157.387 34.0693 163.787 26.2693 162.487 25.0693C162.187 24.6693 160.287 26.2693 158.287 28.5693C156.387 30.8693 154.387 32.7693 153.987 32.7693C153.587 32.7693 153.887 30.0693 154.787 26.7693C156.187 21.4693 156.187 20.6693 154.887 19.3693C153.787 18.3693 152.887 18.1693 151.687 18.8693ZM149.187 28.9693C148.187 34.4693 143.887 38.1693 143.887 33.5693C143.887 31.8693 148.287 25.7693 149.587 25.7693C149.687 25.7693 149.587 27.2693 149.187 28.9693Z" fill="black"/>
</svg>
